<svg xmlns="http://www.w3.org/2000/svg" viewBox="0 0 400 400">
  <rect width="400" height="400" fill="#fce4e4"></rect>
  
  <g transform="translate(110 70)">
    
    <rect x="-6" y="0" width="14" height="280" fill="#e07070" rx="2"></rect>
    
    <rect x="0" y="0" width="180" height="280" fill="#f08a8a" rx="3"></rect>
    
    <g stroke="#e07070" stroke-width="0.5" opacity="0.4">
      <line x1="0" y1="0" x2="180" y2="0"></line><line x1="0" y1="10" x2="180" y2="10"></line><line x1="0" y1="20" x2="180" y2="20"></line><line x1="0" y1="30" x2="180" y2="30"></line><line x1="0" y1="40" x2="180" y2="40"></line><line x1="0" y1="50" x2="180" y2="50"></line><line x1="0" y1="60" x2="180" y2="60"></line><line x1="0" y1="70" x2="180" y2="70"></line><line x1="0" y1="80" x2="180" y2="80"></line><line x1="0" y1="90" x2="180" y2="90"></line><line x1="0" y1="100" x2="180" y2="100"></line><line x1="0" y1="110" x2="180" y2="110"></line><line x1="0" y1="120" x2="180" y2="120"></line><line x1="0" y1="130" x2="180" y2="130"></line><line x1="0" y1="140" x2="180" y2="140"></line><line x1="0" y1="150" x2="180" y2="150"></line><line x1="0" y1="160" x2="180" y2="160"></line><line x1="0" y1="170" x2="180" y2="170"></line><line x1="0" y1="180" x2="180" y2="180"></line><line x1="0" y1="190" x2="180" y2="190"></line><line x1="0" y1="200" x2="180" y2="200"></line><line x1="0" y1="210" x2="180" y2="210"></line><line x1="0" y1="220" x2="180" y2="220"></line><line x1="0" y1="230" x2="180" y2="230"></line><line x1="0" y1="240" x2="180" y2="240"></line><line x1="0" y1="250" x2="180" y2="250"></line><line x1="0" y1="260" x2="180" y2="260"></line><line x1="0" y1="270" x2="180" y2="270"></line><line x1="0" y1="280" x2="180" y2="280"></line><line x1="0" y1="290" x2="180" y2="290"></line>
      <line x1="0" y1="0" x2="0" y2="280"></line><line x1="10" y1="0" x2="10" y2="280"></line><line x1="20" y1="0" x2="20" y2="280"></line><line x1="30" y1="0" x2="30" y2="280"></line><line x1="40" y1="0" x2="40" y2="280"></line><line x1="50" y1="0" x2="50" y2="280"></line><line x1="60" y1="0" x2="60" y2="280"></line><line x1="70" y1="0" x2="70" y2="280"></line><line x1="80" y1="0" x2="80" y2="280"></line><line x1="90" y1="0" x2="90" y2="280"></line><line x1="100" y1="0" x2="100" y2="280"></line><line x1="110" y1="0" x2="110" y2="280"></line><line x1="120" y1="0" x2="120" y2="280"></line><line x1="130" y1="0" x2="130" y2="280"></line><line x1="140" y1="0" x2="140" y2="280"></line><line x1="150" y1="0" x2="150" y2="280"></line><line x1="160" y1="0" x2="160" y2="280"></line><line x1="170" y1="0" x2="170" y2="280"></line><line x1="180" y1="0" x2="180" y2="280"></line><line x1="190" y1="0" x2="190" y2="280"></line>
    </g>
    
    <rect x="40" y="100" width="100" height="80" fill="#fff5f5" stroke="#a85050" stroke-width="1.5"></rect>
    <text x="90" y="135" text-anchor="middle" font-family="Georgia, serif" font-style="italic" font-size="14" fill="#a85050">Journal</text>
    <line x1="55" y1="145" x2="125" y2="145" stroke="#a85050" stroke-width="0.8"></line>
    <text x="90" y="165" text-anchor="middle" font-family="Georgia, serif" font-size="9" fill="#a85050" letter-spacing="2">CORDY&#39;S CRAFTS</text>
    
    <line x1="-6" y1="220" x2="180" y2="220" stroke="#a85050" stroke-width="3"></line>
    
    <line x1="180" y1="6" x2="180" y2="276" stroke="#fff5f5" stroke-width="2"></line>
  </g>

</svg>