<svg xmlns="http://www.w3.org/2000/svg" viewBox="0 0 400 400">
  <rect width="400" height="400" fill="#fce4e4"></rect>
  
  <ellipse cx="200" cy="335" rx="90" ry="10" fill="#f5c0c0" opacity="0.6"></ellipse>
  <g transform="translate(110 130)">
    
    <ellipse cx="90" cy="180" rx="90" ry="14" fill="#e07070"></ellipse>
    <rect x="0" y="20" width="180" height="160" fill="#f08a8a"></rect>
    <ellipse cx="90" cy="20" rx="90" ry="14" fill="#f5a3a3"></ellipse>
    
    <ellipse cx="90" cy="20" rx="80" ry="10" fill="#fff5f5"></ellipse>
    
    <line x1="90" y1="10" x2="90" y2="20" stroke="#3a2a2a" stroke-width="2"></line>
    
    <rect x="30" y="60" width="120" height="80" fill="#fff5f5" stroke="#a85050" stroke-width="1"></rect>
    <text x="90" y="90" text-anchor="middle" font-family="Georgia, serif" font-style="italic" font-size="16" fill="#a85050">Citrus</text>
    <text x="90" y="115" text-anchor="middle" font-family="Georgia, serif" font-size="9" fill="#a85050" letter-spacing="2">TRAVEL TIN</text>
    <circle cx="90" cy="128" r="3" fill="#e07070"></circle>
  </g>
  
  <g transform="translate(60 240)">
    <circle cx="0" cy="0" r="20" fill="#f5a3a3" stroke="#e07070" stroke-width="1.5"></circle>
    <g stroke="#e07070" stroke-width="1" fill="none">
      <line x1="0" y1="-16" x2="0" y2="16"></line>
      <line x1="-16" y1="0" x2="16" y2="0"></line>
      <line x1="-12" y1="-12" x2="12" y2="12"></line>
      <line x1="-12" y1="12" x2="12" y2="-12"></line>
    </g>
  </g>

</svg>